<?xml version="1.0" encoding="UTF-8"?>
<svg xmlns="http://www.w3.org/2000/svg" xmlns:xlink="http://www.w3.org/1999/xlink" width="169.758pt" height="169.758pt" viewBox="0 0 169.758 169.758" version="1.2">
<defs>
<g>
<symbol overflow="visible" id="glyph0-0">
<path style="stroke:none;" d=""/>
</symbol>
<symbol overflow="visible" id="glyph0-1">
<path style="stroke:none;" d="M 4.75 -5.375 L 3.3125 -5.375 L 3.625 -6.625 C 3.828125 -7.453125 4.046875 -7.765625 4.34375 -7.765625 C 4.640625 -7.765625 4.84375 -7.53125 5.078125 -7 C 5.140625 -6.890625 5.21875 -6.8125 5.375 -6.8125 C 5.609375 -6.8125 5.921875 -7.015625 5.921875 -7.296875 C 5.921875 -7.765625 5.328125 -8.15625 4.671875 -8.15625 C 3.953125 -8.15625 3.5 -7.859375 3.125 -7.390625 C 2.796875 -6.96875 2.578125 -6.375 2.421875 -5.78125 L 2.3125 -5.375 L 1.34375 -5.375 L 1.234375 -4.96875 L 2.203125 -4.96875 L 0.9375 1.5 C 0.796875 2.1875 0.6875 2.25 0.578125 2.25 C 0.46875 2.25 0.296875 2.15625 0 1.71875 C -0.078125 1.609375 -0.15625 1.46875 -0.296875 1.46875 C -0.53125 1.46875 -0.796875 1.75 -0.796875 2.015625 C -0.78125 2.390625 -0.3125 2.65625 0.203125 2.65625 C 1.3125 2.65625 1.765625 1.765625 2.234375 -0.34375 L 3.25 -4.96875 L 4.640625 -4.96875 Z M 4.75 -5.375 "/>
</symbol>
<symbol overflow="visible" id="glyph1-0">
<path style="stroke:none;" d=""/>
</symbol>
<symbol overflow="visible" id="glyph1-1">
<path style="stroke:none;" d="M 5.234375 -2.078125 L 5.234375 -2.5625 L 0.703125 -2.5625 L 0.703125 -2.078125 Z M 5.234375 -2.078125 "/>
</symbol>
<symbol overflow="visible" id="glyph2-0">
<path style="stroke:none;" d=""/>
</symbol>
<symbol overflow="visible" id="glyph2-1">
<path style="stroke:none;" d="M 3.59375 0 L 3.59375 -0.234375 L 2.90625 -0.296875 C 2.734375 -0.3125 2.640625 -0.375 2.640625 -0.703125 L 2.640625 -5.546875 L 2.59375 -5.59375 L 0.890625 -5.3125 L 0.890625 -5.109375 L 1.65625 -5.015625 C 1.796875 -5 1.859375 -4.9375 1.859375 -4.6875 L 1.859375 -0.703125 C 1.859375 -0.546875 1.84375 -0.4375 1.78125 -0.390625 C 1.75 -0.328125 1.6875 -0.296875 1.59375 -0.296875 L 0.890625 -0.234375 L 0.890625 0 Z M 3.59375 0 "/>
</symbol>
<symbol overflow="visible" id="glyph3-0">
<path style="stroke:none;" d=""/>
</symbol>
<symbol overflow="visible" id="glyph3-1">
<path style="stroke:none;" d="M 1.75 -2.828125 C 1.75 -5.6875 2.625 -6.546875 3.25 -6.6875 L 3.25 -6.9375 C 1.5 -6.859375 1.046875 -4.6875 1.046875 -2.828125 C 1.046875 -0.96875 1.5 1.21875 3.25 1.28125 L 3.25 1.03125 C 2.671875 0.90625 1.75 0.0625 1.75 -2.828125 Z M 1.75 -2.828125 "/>
</symbol>
<symbol overflow="visible" id="glyph3-2">
<path style="stroke:none;" d="M 0.703125 1.40625 C 1.203125 0.9375 1.9375 0.28125 1.9375 -0.515625 C 1.9375 -1.0625 1.609375 -1.421875 1.25 -1.40625 C 0.9375 -1.40625 0.765625 -1.171875 0.765625 -0.90625 C 0.765625 -0.546875 1.09375 -0.375 1.09375 0.0625 C 1.09375 0.46875 0.828125 0.875 0.515625 1.21875 Z M 0.703125 1.40625 "/>
</symbol>
<symbol overflow="visible" id="glyph3-3">
<path style="stroke:none;" d="M 1.75 -2.828125 C 1.75 0.0625 0.828125 0.90625 0.25 1.03125 L 0.25 1.28125 C 2 1.21875 2.453125 -0.96875 2.453125 -2.828125 C 2.453125 -4.6875 2 -6.859375 0.25 -6.9375 L 0.25 -6.6875 C 0.875 -6.546875 1.75 -5.6875 1.75 -2.828125 Z M 1.75 -2.828125 "/>
</symbol>
<symbol overflow="visible" id="glyph4-0">
<path style="stroke:none;" d=""/>
</symbol>
<symbol overflow="visible" id="glyph4-1">
<path style="stroke:none;" d="M 5.078125 -1.375 C 4.84375 -0.9375 4.5625 -0.40625 4.28125 -0.40625 C 4.09375 -0.40625 4.015625 -0.625 3.796875 -1.515625 L 3.46875 -2.828125 C 3.84375 -3.46875 4.34375 -4.28125 4.640625 -4.28125 C 4.734375 -4.28125 4.8125 -4.25 4.921875 -4.203125 C 5.015625 -4.15625 5.125 -4.109375 5.234375 -4.109375 C 5.453125 -4.109375 5.671875 -4.328125 5.671875 -4.59375 C 5.671875 -4.90625 5.4375 -5.03125 5.15625 -5.03125 C 4.625 -5.03125 4.171875 -4.546875 3.828125 -3.984375 L 3.390625 -3.3125 L 3.359375 -3.3125 L 2.96875 -4.984375 L 2.90625 -5.03125 L 1.25 -4.53125 L 1.28125 -4.28125 L 2.03125 -4.34375 C 2.21875 -4.34375 2.28125 -4.296875 2.390625 -3.84375 L 2.75 -2.390625 L 2.46875 -1.90625 C 2.046875 -1.171875 1.671875 -0.65625 1.4375 -0.65625 C 1.328125 -0.65625 1.234375 -0.6875 1.140625 -0.734375 C 1.046875 -0.796875 0.90625 -0.890625 0.734375 -0.890625 C 0.484375 -0.890625 0.3125 -0.625 0.3125 -0.390625 C 0.3125 -0.09375 0.546875 0.125 0.953125 0.125 C 1.625 0.125 2.015625 -0.5625 2.4375 -1.234375 L 2.828125 -1.890625 L 2.859375 -1.890625 L 3.03125 -1.109375 C 3.21875 -0.3125 3.421875 0.125 3.921875 0.125 C 4.65625 0.125 5.03125 -0.625 5.34375 -1.234375 Z M 5.078125 -1.375 "/>
</symbol>
<symbol overflow="visible" id="glyph4-2">
<path style="stroke:none;" d="M 0.71875 -4.546875 L 0.734375 -4.296875 L 1.421875 -4.3125 C 1.640625 -4.328125 1.6875 -4.15625 1.765625 -3.640625 C 1.890625 -2.859375 2.109375 -0.9375 2.109375 -0.125 C 2.109375 0.171875 2.078125 0.578125 1.859375 1.109375 C 1.6875 1.53125 1.421875 1.828125 1.21875 1.828125 C 1.078125 1.828125 0.96875 1.71875 0.8125 1.515625 C 0.6875 1.359375 0.609375 1.265625 0.453125 1.265625 C 0.203125 1.28125 -0.046875 1.578125 -0.046875 1.875 C -0.046875 2.140625 0.234375 2.421875 0.6875 2.421875 C 1.53125 2.421875 1.90625 1.796875 2.78125 0.265625 C 2.984375 -0.0625 3.578125 -1.125 4.203125 -2.15625 C 4.78125 -3.09375 5.40625 -4.0625 5.40625 -4.46875 C 5.40625 -4.8125 5.296875 -5.03125 5.234375 -5.03125 C 5.03125 -5.03125 4.703125 -4.953125 4.453125 -4.78125 C 4.453125 -4.421875 4.4375 -3.8125 4.3125 -3.390625 C 4.15625 -2.828125 3.5625 -1.75 2.90625 -0.609375 L 2.875 -0.609375 C 2.796875 -2.140625 2.609375 -4.25 2.46875 -4.984375 L 2.390625 -5.03125 Z M 0.71875 -4.546875 "/>
</symbol>
<symbol overflow="visible" id="glyph5-0">
<path style="stroke:none;" d=""/>
</symbol>
<symbol overflow="visible" id="glyph5-1">
<path style="stroke:none;" d="M 2.015625 -4.890625 C 2.734375 -4.890625 2.9375 -3.78125 2.9375 -2.53125 C 2.9375 -1.296875 2.734375 -0.171875 2.015625 -0.171875 C 1.296875 -0.171875 1.078125 -1.296875 1.078125 -2.53125 C 1.078125 -3.78125 1.296875 -4.890625 2.015625 -4.890625 Z M 2.015625 -5.15625 C 0.765625 -5.15625 0.3125 -4.0625 0.3125 -2.53125 C 0.3125 -1.015625 0.765625 0.09375 2.015625 0.09375 C 3.265625 0.09375 3.71875 -1.015625 3.71875 -2.53125 C 3.71875 -4.0625 3.265625 -5.15625 2.015625 -5.15625 Z M 2.015625 -5.15625 "/>
</symbol>
<symbol overflow="visible" id="glyph5-2">
<path style="stroke:none;" d="M 3.3125 0 L 3.3125 -0.21875 L 2.6875 -0.265625 C 2.515625 -0.28125 2.4375 -0.34375 2.4375 -0.640625 L 2.4375 -5.125 L 2.390625 -5.15625 L 0.828125 -4.890625 L 0.828125 -4.703125 L 1.53125 -4.625 C 1.65625 -4.609375 1.71875 -4.546875 1.71875 -4.328125 L 1.71875 -0.640625 C 1.71875 -0.5 1.6875 -0.40625 1.640625 -0.359375 C 1.609375 -0.296875 1.546875 -0.28125 1.46875 -0.265625 L 0.828125 -0.21875 L 0.828125 0 Z M 3.3125 0 "/>
</symbol>
</g>
<clipPath id="clip1">
  <path d="M 4.179688 4.175781 L 165.339844 4.175781 L 165.339844 132 L 4.179688 132 Z M 4.179688 4.175781 "/>
</clipPath>
<clipPath id="clip2">
  <path d="M 14 4.175781 L 165.339844 4.175781 L 165.339844 165.339844 L 14 165.339844 Z M 14 4.175781 "/>
</clipPath>
<clipPath id="clip3">
  <path d="M 4.179688 4.175781 L 165.339844 4.175781 L 165.339844 165.339844 L 4.179688 165.339844 Z M 4.179688 4.175781 "/>
</clipPath>
<clipPath id="clip4">
  <path d="M 35 4.175781 L 38 4.175781 L 38 165.339844 L 35 165.339844 Z M 35 4.175781 "/>
</clipPath>
<clipPath id="clip5">
  <path d="M 4.179688 132 L 165.339844 132 L 165.339844 134 L 4.179688 134 Z M 4.179688 132 "/>
</clipPath>
</defs>
<g id="surface1">
<path style="fill:none;stroke-width:0.3985;stroke-linecap:butt;stroke-linejoin:miter;stroke:rgb(0%,0%,0%);stroke-opacity:1;stroke-miterlimit:10;" d="M 0.00164589 -0.00154541 L 0.00164589 161.392266 L 161.391545 161.392266 L 161.391545 -0.00154541 Z M 0.00164589 -0.00154541 " transform="matrix(0.998576,0,0,-0.998576,4.178044,165.338301)"/>
<g clip-path="url(#clip1)" clip-rule="nonzero">
<path style="fill:none;stroke-width:1.59404;stroke-linecap:butt;stroke-linejoin:miter;stroke:rgb(100%,0%,0%);stroke-opacity:1;stroke-miterlimit:10;" d="M 0.00164589 56.187817 C 0.00164589 56.187817 1.179103 56.45382 1.628962 56.555528 C 2.082733 56.661147 2.80642 56.825443 3.260191 56.927151 C 3.713962 57.03277 4.437648 57.200978 4.891419 57.306597 C 5.341278 57.412216 6.068877 57.580424 6.522647 57.686043 C 6.972507 57.795574 7.700105 57.967694 8.149964 58.073313 C 8.603735 58.182844 9.327421 58.358876 9.781192 58.468407 C 10.234963 58.577938 10.95865 58.757882 11.412421 58.867413 C 11.86228 58.980855 12.589878 59.160799 13.039737 59.274242 C 13.493508 59.391596 14.221106 59.575452 14.670966 59.688894 C 15.124737 59.802337 15.848423 59.990104 16.302194 60.107459 C 16.755965 60.220902 17.479651 60.412581 17.933422 60.529935 C 18.383281 60.651202 19.11088 60.842881 19.560739 60.964147 C 20.01451 61.085414 20.738196 61.277093 21.191967 61.398359 C 21.645738 61.523537 22.369425 61.72304 22.823196 61.844306 C 23.273055 61.969485 24.000653 62.172899 24.454424 62.298077 C 24.904283 62.423256 25.631881 62.62667 26.08174 62.75576 C 26.535511 62.88485 27.259198 63.092177 27.712969 63.221267 C 28.16674 63.350357 28.890426 63.561595 29.344197 63.694597 C 29.794056 63.823687 30.521655 64.038837 30.975425 64.171839 C 31.425285 64.308752 32.152883 64.51999 32.602742 64.652992 C 33.056513 64.789906 33.780199 65.008968 34.23397 65.149793 C 34.687741 65.286707 35.411428 65.50968 35.865199 65.650506 C 36.315058 65.791331 37.042656 66.018217 37.492515 66.159042 C 37.946286 66.30378 38.673884 66.530665 39.123744 66.675402 C 39.577515 66.82014 40.301201 67.054849 40.754972 67.203498 C 41.208743 67.348235 41.932429 67.586856 42.3862 67.735505 C 42.836059 67.884154 43.563658 68.126687 44.013517 68.279248 C 44.467288 68.427897 45.190974 68.674342 45.644745 68.826903 C 46.098516 68.979464 46.822203 69.22982 47.275974 69.386293 C 47.725833 69.542765 48.453431 69.793122 48.907202 69.953506 C 49.357061 70.109979 50.084659 70.368159 50.534518 70.528544 C 50.988289 70.688928 51.711976 70.947108 52.165747 71.111405 C 52.619518 71.275701 53.343204 71.537793 53.796975 71.706001 C 54.246834 71.870298 54.974433 72.136301 55.428203 72.304509 C 55.878063 72.472718 56.605661 72.746545 57.05552 72.918665 C 57.509291 73.086873 58.232977 73.364612 58.686748 73.536732 C 59.140519 73.712764 59.864206 73.994415 60.317977 74.170447 C 60.767836 74.346479 61.495434 74.62813 61.945293 74.808073 C 62.399064 74.988017 63.126662 75.27358 63.576522 75.457435 C 64.030293 75.637379 64.753979 75.934677 65.20775 76.118533 C 65.661521 76.302388 66.385207 76.599686 66.838978 76.787453 C 67.288837 76.975221 68.016436 77.276431 68.466295 77.464198 C 68.920066 77.655877 69.643752 77.964911 70.097523 78.15659 C 70.551294 78.348269 71.274981 78.661215 71.728752 78.856806 C 72.178611 79.052396 72.906209 79.369254 73.35998 79.568757 C 73.809839 79.768259 74.537437 80.089028 74.987296 80.288531 C 75.441067 80.491946 76.164754 80.820538 76.618525 81.023953 C 77.072296 81.227368 77.795982 81.559872 78.249753 81.767199 C 78.699612 81.974525 79.427211 82.310941 79.880981 82.52218 C 80.330841 82.733418 81.058439 83.077658 81.508298 83.292808 C 81.962069 83.504046 82.685755 83.852198 83.139526 84.07126 C 83.593297 84.28641 84.316984 84.638473 84.770755 84.861447 C 85.220614 85.080509 85.948212 85.440396 86.398071 85.66337 C 86.851842 85.890255 87.57944 86.250143 88.0293 86.48094 C 88.483071 86.707825 89.206757 87.075536 89.660528 87.306334 C 90.114299 87.537131 90.837985 87.912666 91.291756 88.147375 C 91.741615 88.382084 92.469214 88.76153 92.919073 89.000151 C 93.372844 89.238772 94.09653 89.626042 94.550301 89.868575 C 95.004072 90.107196 95.727759 90.498378 96.18153 90.744822 C 96.6353 90.991267 97.358987 91.390272 97.812758 91.636717 C 98.262617 91.887073 98.990215 92.289991 99.440074 92.544259 C 99.893845 92.798527 100.617532 93.209268 101.071303 93.467448 C 101.525074 93.721716 102.24876 94.140281 102.702531 94.398461 C 103.15239 94.660553 103.879989 95.083029 104.333759 95.349033 C 104.783619 95.615036 105.511217 96.041425 105.961076 96.31134 C 106.414847 96.581256 107.138533 97.015467 107.592304 97.289295 C 108.046075 97.563122 108.769762 98.005158 109.223533 98.282897 C 109.673392 98.560636 110.40099 99.010495 110.850849 99.292146 C 111.30462 99.573797 112.032218 100.027568 112.482078 100.31313 C 112.935849 100.598693 113.659535 101.0642 114.113306 101.353674 C 114.567077 101.643149 115.290763 102.112567 115.744534 102.409865 C 116.194393 102.703252 116.921992 103.180494 117.371851 103.481704 C 117.825622 103.779002 118.549308 104.264067 119.003079 104.565277 C 119.45685 104.870399 120.180537 105.359376 120.634308 105.66841 C 121.088078 105.977444 121.811765 106.478157 122.265536 106.791102 C 122.715395 107.104048 123.442993 107.612584 123.892852 107.929441 C 124.346623 108.246299 125.07031 108.762659 125.524081 109.083428 C 125.977852 109.408109 126.701538 109.928381 127.155309 110.256973 C 127.605168 110.585566 128.332767 111.113662 128.786537 111.450078 C 129.236397 111.782583 129.963995 112.318502 130.413854 112.65883 C 130.867625 112.995246 131.591311 113.542901 132.045082 113.887141 C 132.498853 114.227469 133.22254 114.782947 133.676311 115.131099 C 134.12617 115.479251 134.853768 116.042553 135.303627 116.394617 C 135.757398 116.750592 136.484996 117.321718 136.934856 117.681605 C 137.388627 118.041492 138.112313 118.61653 138.566084 118.984241 C 139.019855 119.34804 139.743541 119.938724 140.197312 120.310347 C 140.647171 120.68197 141.37477 121.276566 141.824629 121.652101 C 142.2784 122.031547 143.002086 122.637879 143.455857 123.017326 C 143.909628 123.400684 144.633315 124.018751 145.087086 124.406021 C 145.540856 124.793291 146.264543 125.419182 146.718314 125.810364 C 147.168173 126.205458 147.895771 126.839172 148.34563 127.24209 C 148.799401 127.641095 149.523088 128.286545 149.976859 128.689463 C 150.43063 129.096292 151.154316 129.753477 151.608087 130.164218 C 152.057946 130.574959 152.785545 131.239968 153.239315 131.658533 C 153.689175 132.073186 154.416773 132.74993 154.866632 133.172407 C 155.320403 133.598795 156.044089 134.287275 156.49786 134.717575 C 156.951631 135.147875 157.675318 135.844179 158.129089 136.278391 C 158.578948 136.716514 159.306546 137.424553 159.756405 137.870501 C 160.210176 138.312536 161.387634 139.48217 161.387634 139.48217 " transform="matrix(0.998576,0,0,-0.998576,4.178044,165.338301)"/>
</g>
<g style="fill:rgb(100%,0%,0%);fill-opacity:1;">
  <use xlink:href="#glyph0-1" x="149.439965" y="71.192511"/>
</g>
<path style="fill:none;stroke-width:0.19925;stroke-linecap:butt;stroke-linejoin:miter;stroke:rgb(50%,50%,50%);stroke-opacity:1;stroke-miterlimit:10;" d="M 147.946625 122.583114 L 147.946625 106.802838 " transform="matrix(0.998576,0,0,-0.998576,4.178044,165.338301)"/>
<g clip-path="url(#clip2)" clip-rule="nonzero">
<path style="fill:none;stroke-width:1.59404;stroke-linecap:butt;stroke-linejoin:miter;stroke:rgb(0%,0%,100%);stroke-opacity:1;stroke-miterlimit:10;" d="M 32.602742 -462.190735 C 32.602742 -462.190735 33.780199 -305.103836 34.23397 -269.291137 C 34.687741 -233.478438 35.411428 -218.711323 35.865199 -204.069386 C 36.315058 -189.431361 37.042656 -173.424199 37.492515 -163.773742 C 37.946286 -154.123286 38.673884 -141.765851 39.123744 -134.517251 C 39.577515 -127.268651 40.301201 -117.352191 40.754972 -111.539229 C 41.208743 -105.730178 41.932429 -97.480153 42.3862 -92.625586 C 42.836059 -87.771019 43.563658 -80.714098 44.013517 -76.540188 C 44.467288 -72.370189 45.190974 -66.209075 45.644745 -62.551525 C 46.098516 -58.890062 46.822203 -53.429164 47.275974 -50.174531 C 47.725833 -46.915986 48.453431 -42.006653 48.907202 -39.072789 C 49.357061 -36.135014 50.084659 -31.691188 50.534518 -29.019416 C 50.988289 -26.347644 51.711976 -22.267617 52.165747 -19.814907 C 52.619518 -17.362196 53.343204 -13.610762 53.796975 -11.345819 C 54.246834 -9.080876 54.974433 -5.595446 55.428203 -3.490888 C 55.878063 -1.386329 56.605661 1.86048 57.05552 3.828125 C 57.509291 5.79577 58.232977 8.843076 58.686748 10.689455 C 59.140519 12.531921 59.864206 15.391461 60.317977 17.128308 C 60.767836 18.865156 61.495434 21.56431 61.945293 23.207274 C 62.399064 24.846326 63.126662 27.408567 63.576522 28.961559 C 64.030293 30.518463 64.753979 32.943791 65.20775 34.422458 C 65.661521 35.901126 66.385207 38.21301 66.838978 39.621265 C 67.288837 41.02952 68.016436 43.231874 68.466295 44.577539 C 68.920066 45.923205 69.643752 48.031675 70.097523 49.318663 C 70.551294 50.605652 71.274981 52.62415 71.728752 53.860285 C 72.178611 55.092508 72.906209 57.024946 73.35998 58.210227 C 73.809839 59.395508 74.537437 61.257534 74.987296 62.395873 C 75.441067 63.534212 76.164754 65.329737 76.618525 66.425046 C 77.072296 67.524267 77.795982 69.249379 78.249753 70.309482 C 78.699612 71.365673 79.427211 73.032108 79.880981 74.057004 C 80.330841 75.077989 81.058439 76.685746 81.508298 77.675436 C 81.962069 78.665126 82.685755 80.22203 83.139526 81.180426 C 83.593297 82.13491 84.316984 83.644871 84.770755 84.571972 C 85.220614 85.499073 85.948212 86.958182 86.398071 87.8579 C 86.851842 88.757618 87.57944 90.185432 88.0293 91.057768 C 88.483071 91.934015 89.206757 93.307063 89.660528 94.152016 C 90.114299 95.000881 90.837985 96.330899 91.291756 97.156293 C 91.741615 97.981687 92.469214 99.292146 92.919073 100.094069 C 93.372844 100.899903 94.09653 102.167332 94.550301 102.945784 C 95.004072 103.724236 95.727759 104.948636 96.18153 105.71144 C 96.6353 106.474245 97.358987 107.698644 97.812758 108.445801 C 98.262617 109.192959 98.990215 110.362592 99.440074 111.086279 C 99.893845 111.809965 100.617532 112.956128 101.071303 113.664167 C 101.525074 114.372206 102.24876 115.494898 102.702531 116.183378 C 103.15239 116.87577 103.879989 117.97108 104.333759 118.647824 C 104.783619 119.324569 105.511217 120.392495 105.961076 121.053593 C 106.414847 121.71469 107.138533 122.759146 107.592304 123.408507 C 108.046075 124.053957 108.769762 125.074942 109.223533 125.708657 C 109.673392 126.342371 110.40099 127.347709 110.850849 127.965776 C 111.30462 128.583843 112.032218 129.569622 112.482078 130.175954 C 112.935849 130.782285 113.659535 131.744593 114.113306 132.339189 C 114.567077 132.933786 115.290763 133.876534 115.744534 134.459395 C 116.194393 135.042256 116.921992 135.969357 117.371851 136.540482 C 117.825622 137.111608 118.549308 138.01915 119.003079 138.582452 C 119.45685 139.141842 120.180537 140.033736 120.634308 140.581391 C 121.088078 141.132957 121.811765 142.005293 122.265536 142.545124 C 122.715395 143.084955 123.442993 143.949467 123.892852 144.481474 C 124.346623 145.013481 125.07031 145.858434 125.524081 146.378706 C 125.977852 146.898978 126.701538 147.724372 127.155309 148.23682 C 127.605168 148.749268 128.332767 149.566838 128.786537 150.071463 C 129.236397 150.576088 129.963995 151.37801 130.413854 151.874811 C 130.867625 152.3677 131.591311 153.153976 132.045082 153.642953 C 132.498853 154.131931 133.22254 154.914294 133.676311 155.395448 C 134.12617 155.876602 134.853768 156.635495 135.303627 157.104913 C 135.757398 157.578243 136.484996 158.329312 136.934856 158.794818 C 137.388627 159.256413 138.112313 159.999659 138.566084 160.457341 C 139.019855 160.911112 139.743541 161.63871 140.197312 162.08857 C 140.647171 162.538429 141.37477 163.254292 141.824629 163.700239 C 142.2784 164.146186 143.002086 164.858137 143.455857 165.296261 C 143.909628 165.738296 144.633315 166.4346 145.087086 166.8649 C 145.540856 167.291288 146.264543 167.971945 146.718314 168.394421 C 147.168173 168.820809 147.895771 169.501466 148.34563 169.92003 C 148.799401 170.338595 149.523088 171.003604 149.976859 171.414345 C 150.43063 171.825086 151.154316 172.47836 151.608087 172.889101 C 152.057946 173.299842 152.785545 173.960939 153.239315 174.363856 C 153.689175 174.766774 154.416773 175.4044 154.866632 175.799494 C 155.320403 176.194587 156.044089 176.82439 156.49786 177.215572 C 156.951631 177.602842 157.675318 178.224821 158.129089 178.612091 C 158.578948 178.999361 159.306546 179.613517 159.756405 179.992963 C 160.210176 180.376322 161.387634 181.366012 161.387634 181.366012 " transform="matrix(0.998576,0,0,-0.998576,4.178044,165.338301)"/>
</g>
<g style="fill:rgb(0%,0%,100%);fill-opacity:1;">
  <use xlink:href="#glyph0-1" x="90.044636" y="20.688507"/>
</g>
<g style="fill:rgb(0%,0%,100%);fill-opacity:1;">
  <use xlink:href="#glyph1-1" x="96.180888" y="16.354685"/>
</g>
<g style="fill:rgb(0%,0%,100%);fill-opacity:1;">
  <use xlink:href="#glyph2-1" x="102.108438" y="16.354685"/>
</g>
<path style="fill:none;stroke-width:0.19925;stroke-linecap:butt;stroke-linejoin:miter;stroke:rgb(50%,50%,50%);stroke-opacity:1;stroke-miterlimit:10;" d="M 123.028341 148.440235 L 107.248064 148.440235 " transform="matrix(0.998576,0,0,-0.998576,4.178044,165.338301)"/>
<g clip-path="url(#clip3)" clip-rule="nonzero">
<path style="fill:none;stroke-width:1.59404;stroke-linecap:butt;stroke-linejoin:miter;stroke:rgb(0%,0%,0%);stroke-opacity:1;stroke-dasharray:2.98883,2.98883;stroke-miterlimit:10;" d="M 0.00164589 -0.00154541 C 0.00164589 -0.00154541 1.179103 1.175912 1.628962 1.629683 C 2.082733 2.083454 2.80642 2.80714 3.260191 3.260911 C 3.713962 3.71077 4.437648 4.438369 4.891419 4.89214 C 5.341278 5.341999 6.068877 6.069597 6.522647 6.519456 C 6.972507 6.973227 7.700105 7.696914 8.149964 8.150685 C 8.603735 8.604455 9.327421 9.328142 9.781192 9.781913 C 10.234963 10.231772 10.95865 10.95937 11.412421 11.413141 C 11.86228 11.863 12.589878 12.590599 13.039737 13.040458 C 13.493508 13.494229 14.221106 14.217915 14.670966 14.671686 C 15.124737 15.125457 15.848423 15.849144 16.302194 16.302914 C 16.755965 16.752774 17.479651 17.480372 17.933422 17.930231 C 18.383281 18.384002 19.11088 19.1116 19.560739 19.561459 C 20.01451 20.01523 20.738196 20.738917 21.191967 21.192688 C 21.645738 21.646459 22.369425 22.370145 22.823196 22.823916 C 23.273055 23.273775 24.000653 24.001373 24.454424 24.451233 C 24.904283 24.905004 25.631881 25.62869 26.08174 26.082461 C 26.535511 26.536232 27.259198 27.259918 27.712969 27.713689 C 28.16674 28.16746 28.890426 28.891147 29.344197 29.344918 C 29.794056 29.794777 30.521655 30.522375 30.975425 30.972234 C 31.425285 31.426005 32.152883 32.149692 32.602742 32.603463 C 33.056513 33.057233 33.780199 33.78092 34.23397 34.234691 C 34.687741 34.68455 35.411428 35.412148 35.865199 35.865919 C 36.315058 36.315778 37.042656 37.043377 37.492515 37.493236 C 37.946286 37.947007 38.673884 38.670693 39.123744 39.124464 C 39.577515 39.578235 40.301201 40.301922 40.754972 40.755692 C 41.208743 41.205552 41.932429 41.93315 42.3862 42.383009 C 42.836059 42.83678 43.563658 43.564378 44.013517 44.014237 C 44.467288 44.468008 45.190974 45.191695 45.644745 45.645466 C 46.098516 46.099237 46.822203 46.822923 47.275974 47.276694 C 47.725833 47.726553 48.453431 48.454151 48.907202 48.904011 C 49.357061 49.357782 50.084659 50.081468 50.534518 50.535239 C 50.988289 50.98901 51.711976 51.712696 52.165747 52.166467 C 52.619518 52.620238 53.343204 53.343925 53.796975 53.797696 C 54.246834 54.247555 54.974433 54.975153 55.428203 55.425012 C 55.878063 55.878783 56.605661 56.60247 57.05552 57.056241 C 57.509291 57.510011 58.232977 58.233698 58.686748 58.687469 C 59.140519 59.137328 59.864206 59.864926 60.317977 60.318697 C 60.767836 60.768556 61.495434 61.496155 61.945293 61.946014 C 62.399064 62.399785 63.126662 63.123471 63.576522 63.577242 C 64.030293 64.031013 64.753979 64.7547 65.20775 65.20847 C 65.661521 65.65833 66.385207 66.385928 66.838978 66.835787 C 67.288837 67.289558 68.016436 68.017156 68.466295 68.467015 C 68.920066 68.920786 69.643752 69.644473 70.097523 70.098244 C 70.551294 70.552015 71.274981 71.275701 71.728752 71.729472 C 72.178611 72.179331 72.906209 72.906929 73.35998 73.356789 C 73.809839 73.81056 74.537437 74.534246 74.987296 74.988017 C 75.441067 75.441788 76.164754 76.165474 76.618525 76.619245 C 77.072296 77.073016 77.795982 77.796703 78.249753 78.250474 C 78.699612 78.700333 79.427211 79.427931 79.880981 79.87779 C 80.330841 80.331561 81.058439 81.055248 81.508298 81.509019 C 81.962069 81.962789 82.685755 82.686476 83.139526 83.140247 C 83.593297 83.590106 84.316984 84.317704 84.770755 84.771475 C 85.220614 85.221334 85.948212 85.948933 86.398071 86.398792 C 86.851842 86.852563 87.57944 87.576249 88.0293 88.03002 C 88.483071 88.483791 89.206757 89.207478 89.660528 89.661248 C 90.114299 90.111108 90.837985 90.838706 91.291756 91.288565 C 91.741615 91.742336 92.469214 92.469934 92.919073 92.919793 C 93.372844 93.373564 94.09653 94.097251 94.550301 94.551022 C 95.004072 95.004793 95.727759 95.728479 96.18153 96.18225 C 96.6353 96.632109 97.358987 97.359707 97.812758 97.809567 C 98.262617 98.263338 98.990215 98.990936 99.440074 99.440795 C 99.893845 99.894566 100.617532 100.618252 101.071303 101.072023 C 101.525074 101.525794 102.24876 102.249481 102.702531 102.703252 C 103.15239 103.153111 103.879989 103.880709 104.333759 104.330568 C 104.783619 104.784339 105.511217 105.508026 105.961076 105.961797 C 106.414847 106.415567 107.138533 107.139254 107.592304 107.593025 C 108.046075 108.042884 108.769762 108.770482 109.223533 109.224253 C 109.673392 109.674112 110.40099 110.401711 110.850849 110.85157 C 111.30462 111.305341 112.032218 112.029027 112.482078 112.482798 C 112.935849 112.936569 113.659535 113.660256 114.113306 114.114026 C 114.567077 114.563886 115.290763 115.291484 115.744534 115.741343 C 116.194393 116.195114 116.921992 116.922712 117.371851 117.372571 C 117.825622 117.826342 118.549308 118.550029 119.003079 119.0038 C 119.45685 119.457571 120.180537 120.181257 120.634308 120.635028 C 121.088078 121.084887 121.811765 121.812485 122.265536 122.262345 C 122.715395 122.716116 123.442993 123.443714 123.892852 123.893573 C 124.346623 124.347344 125.07031 125.07103 125.524081 125.524801 C 125.977852 125.978572 126.701538 126.702259 127.155309 127.15603 C 127.605168 127.605889 128.332767 128.333487 128.786537 128.783346 C 129.236397 129.237117 129.963995 129.960804 130.413854 130.414575 C 130.867625 130.868345 131.591311 131.592032 132.045082 132.045803 C 132.498853 132.495662 133.22254 133.22326 133.676311 133.677031 C 134.12617 134.12689 134.853768 134.854489 135.303627 135.304348 C 135.757398 135.758119 136.484996 136.481805 136.934856 136.935576 C 137.388627 137.389347 138.112313 138.113034 138.566084 138.566804 C 139.019855 139.016664 139.743541 139.744262 140.197312 140.194121 C 140.647171 140.647892 141.37477 141.37549 141.824629 141.825349 C 142.2784 142.27912 143.002086 143.002807 143.455857 143.456578 C 143.909628 143.910349 144.633315 144.634035 145.087086 145.087806 C 145.540856 145.537665 146.264543 146.265263 146.718314 146.715123 C 147.168173 147.168894 147.895771 147.896492 148.34563 148.346351 C 148.799401 148.800122 149.523088 149.523808 149.976859 149.977579 C 150.43063 150.43135 151.154316 151.155037 151.608087 151.608808 C 152.057946 152.058667 152.785545 152.786265 153.239315 153.236124 C 153.689175 153.689895 154.416773 154.413582 154.866632 154.867353 C 155.320403 155.321123 156.044089 156.04481 156.49786 156.498581 C 156.951631 156.94844 157.675318 157.676038 158.129089 158.129809 C 158.578948 158.579668 159.306546 159.307267 159.756405 159.757126 C 160.210176 160.210897 161.387634 161.388354 161.387634 161.388354 " transform="matrix(0.998576,0,0,-0.998576,4.178044,165.338301)"/>
</g>
<g style="fill:rgb(100%,0%,0%);fill-opacity:1;">
  <use xlink:href="#glyph3-1" x="4.700299" y="94.711983"/>
</g>
<g style="fill:rgb(100%,0%,0%);fill-opacity:1;">
  <use xlink:href="#glyph4-1" x="8.425988" y="94.711983"/>
</g>
<g style="fill:rgb(100%,0%,0%);fill-opacity:1;">
  <use xlink:href="#glyph5-1" x="13.927146" y="96.345654"/>
</g>
<g style="fill:rgb(100%,0%,0%);fill-opacity:1;">
  <use xlink:href="#glyph3-2" x="18.454692" y="94.711983"/>
</g>
<g style="fill:rgb(100%,0%,0%);fill-opacity:1;">
  <use xlink:href="#glyph4-2" x="22.722608" y="94.711983"/>
</g>
<g style="fill:rgb(100%,0%,0%);fill-opacity:1;">
  <use xlink:href="#glyph5-1" x="27.853293" y="96.345654"/>
</g>
<g style="fill:rgb(100%,0%,0%);fill-opacity:1;">
  <use xlink:href="#glyph3-3" x="32.379841" y="94.711983"/>
</g>
<g style="fill:rgb(0%,0%,100%);fill-opacity:1;">
  <use xlink:href="#glyph3-1" x="69.164402" y="151.117573"/>
</g>
<g style="fill:rgb(0%,0%,100%);fill-opacity:1;">
  <use xlink:href="#glyph4-2" x="73.216625" y="151.117573"/>
</g>
<g style="fill:rgb(0%,0%,100%);fill-opacity:1;">
  <use xlink:href="#glyph5-1" x="78.34831" y="152.751244"/>
</g>
<g style="fill:rgb(0%,0%,100%);fill-opacity:1;">
  <use xlink:href="#glyph3-2" x="82.874857" y="151.117573"/>
</g>
<g style="fill:rgb(0%,0%,100%);fill-opacity:1;">
  <use xlink:href="#glyph4-1" x="86.816238" y="151.117573"/>
</g>
<g style="fill:rgb(0%,0%,100%);fill-opacity:1;">
  <use xlink:href="#glyph5-1" x="92.317396" y="152.751244"/>
</g>
<g style="fill:rgb(0%,0%,100%);fill-opacity:1;">
  <use xlink:href="#glyph3-3" x="96.843943" y="151.117573"/>
</g>
<g style="fill:rgb(0%,0%,0%);fill-opacity:1;">
  <use xlink:href="#glyph4-1" x="154.453817" y="145.434674"/>
</g>
<g style="fill:rgb(0%,0%,0%);fill-opacity:1;">
  <use xlink:href="#glyph4-2" x="25.819193" y="14.131854"/>
</g>
<g style="fill:rgb(100%,0%,0%);fill-opacity:1;">
  <use xlink:href="#glyph3-1" x="101.396453" y="85.041768"/>
</g>
<g style="fill:rgb(100%,0%,0%);fill-opacity:1;">
  <use xlink:href="#glyph4-1" x="105.122142" y="85.041768"/>
</g>
<g style="fill:rgb(100%,0%,0%);fill-opacity:1;">
  <use xlink:href="#glyph5-2" x="110.6233" y="86.676438"/>
</g>
<g style="fill:rgb(100%,0%,0%);fill-opacity:1;">
  <use xlink:href="#glyph3-2" x="115.150846" y="85.041768"/>
</g>
<g style="fill:rgb(100%,0%,0%);fill-opacity:1;">
  <use xlink:href="#glyph4-2" x="119.418762" y="85.041768"/>
</g>
<g style="fill:rgb(100%,0%,0%);fill-opacity:1;">
  <use xlink:href="#glyph5-2" x="124.549447" y="86.676438"/>
</g>
<g style="fill:rgb(100%,0%,0%);fill-opacity:1;">
  <use xlink:href="#glyph3-3" x="129.075995" y="85.041768"/>
</g>
<g style="fill:rgb(0%,0%,100%);fill-opacity:1;">
  <use xlink:href="#glyph3-1" x="69.164402" y="46.363906"/>
</g>
<g style="fill:rgb(0%,0%,100%);fill-opacity:1;">
  <use xlink:href="#glyph4-2" x="73.216625" y="46.363906"/>
</g>
<g style="fill:rgb(0%,0%,100%);fill-opacity:1;">
  <use xlink:href="#glyph5-2" x="78.34831" y="47.997577"/>
</g>
<g style="fill:rgb(0%,0%,100%);fill-opacity:1;">
  <use xlink:href="#glyph3-2" x="82.874857" y="46.363906"/>
</g>
<g style="fill:rgb(0%,0%,100%);fill-opacity:1;">
  <use xlink:href="#glyph4-1" x="86.816238" y="46.363906"/>
</g>
<g style="fill:rgb(0%,0%,100%);fill-opacity:1;">
  <use xlink:href="#glyph5-2" x="92.317396" y="47.997577"/>
</g>
<g style="fill:rgb(0%,0%,100%);fill-opacity:1;">
  <use xlink:href="#glyph3-3" x="96.843943" y="46.363906"/>
</g>
<g clip-path="url(#clip4)" clip-rule="nonzero">
<path style="fill:none;stroke-width:1.19553;stroke-linecap:butt;stroke-linejoin:miter;stroke:rgb(0%,0%,0%);stroke-opacity:1;stroke-miterlimit:10;" d="M 32.278061 -0.00154541 L 32.278061 161.392266 " transform="matrix(0.998576,0,0,-0.998576,4.178044,165.338301)"/>
</g>
<g clip-path="url(#clip5)" clip-rule="nonzero">
<path style="fill:none;stroke-width:1.19553;stroke-linecap:butt;stroke-linejoin:miter;stroke:rgb(0%,0%,0%);stroke-opacity:1;stroke-miterlimit:10;" d="M 0.00164589 32.278782 L 161.391545 32.278782 " transform="matrix(0.998576,0,0,-0.998576,4.178044,165.338301)"/>
</g>
<path style="fill-rule:nonzero;fill:rgb(0%,0%,0%);fill-opacity:1;stroke-width:0.3985;stroke-linecap:butt;stroke-linejoin:miter;stroke:rgb(0%,0%,0%);stroke-opacity:1;stroke-miterlimit:10;" d="M 24.587426 61.750423 C 24.587426 62.849644 23.695531 63.741538 22.59631 63.741538 C 21.493177 63.741538 20.601283 62.849644 20.601283 61.750423 C 20.601283 60.64729 21.493177 59.755395 22.59631 59.755395 C 23.695531 59.755395 24.587426 60.64729 24.587426 61.750423 Z M 24.587426 61.750423 " transform="matrix(0.998576,0,0,-0.998576,4.178044,165.338301)"/>
<path style="fill-rule:nonzero;fill:rgb(0%,0%,0%);fill-opacity:1;stroke-width:0.3985;stroke-linecap:butt;stroke-linejoin:miter;stroke:rgb(0%,0%,0%);stroke-opacity:1;stroke-miterlimit:10;" d="M 63.740818 22.593119 C 63.740818 23.696252 62.848923 24.588146 61.749702 24.588146 C 60.646569 24.588146 59.754675 23.696252 59.754675 22.593119 C 59.754675 21.493898 60.646569 20.602003 61.749702 20.602003 C 62.848923 20.602003 63.740818 21.493898 63.740818 22.593119 Z M 63.740818 22.593119 " transform="matrix(0.998576,0,0,-0.998576,4.178044,165.338301)"/>
<path style="fill-rule:nonzero;fill:rgb(0%,0%,0%);fill-opacity:1;stroke-width:0.3985;stroke-linecap:butt;stroke-linejoin:miter;stroke:rgb(0%,0%,0%);stroke-opacity:1;stroke-miterlimit:10;" d="M 114.966082 100.610429 C 114.966082 101.713562 114.074188 102.605456 112.974967 102.605456 C 111.871834 102.605456 110.979939 101.713562 110.979939 100.610429 C 110.979939 99.511208 111.871834 98.619313 112.974967 98.619313 C 114.074188 98.619313 114.966082 99.511208 114.966082 100.610429 Z M 114.966082 100.610429 " transform="matrix(0.998576,0,0,-0.998576,4.178044,165.338301)"/>
<path style="fill-rule:nonzero;fill:rgb(0%,0%,0%);fill-opacity:1;stroke-width:0.3985;stroke-linecap:butt;stroke-linejoin:miter;stroke:rgb(0%,0%,0%);stroke-opacity:1;stroke-miterlimit:10;" d="M 102.604736 112.975687 C 102.604736 114.074908 101.712841 114.966803 100.609708 114.966803 C 99.510487 114.966803 98.618593 114.074908 98.618593 112.975687 C 98.618593 111.872554 99.510487 110.98066 100.609708 110.98066 C 101.712841 110.98066 102.604736 111.872554 102.604736 112.975687 Z M 102.604736 112.975687 " transform="matrix(0.998576,0,0,-0.998576,4.178044,165.338301)"/>
</g>
</svg>
