<?xml version="1.0" encoding="UTF-8"?>
<svg xmlns="http://www.w3.org/2000/svg" xmlns:xlink="http://www.w3.org/1999/xlink" width="150.499pt" height="112.069pt" viewBox="0 0 150.499 112.069" version="1.2">
<defs>
<g>
<symbol overflow="visible" id="glyph0-0">
<path style="stroke:none;" d=""/>
</symbol>
<symbol overflow="visible" id="glyph0-1">
<path style="stroke:none;" d="M 3.34375 -4.25 L 3.921875 -6.78125 C 3.984375 -7.109375 4.046875 -7.171875 4.78125 -7.171875 C 5.6875 -7.171875 6.203125 -6.703125 6.203125 -5.9375 C 6.203125 -5.390625 5.9375 -4.96875 5.5625 -4.65625 C 5.203125 -4.390625 4.640625 -4.25 4.046875 -4.25 Z M 3.6875 -3.875 C 4.765625 -3.875 5.71875 -3.5625 5.71875 -2.328125 C 5.71875 -1.359375 5.125 -0.375 3.671875 -0.375 C 2.578125 -0.375 2.546875 -0.65625 2.640625 -1.078125 L 3.265625 -3.875 Z M 0.421875 0 L 3.734375 0 C 6.375 0 6.890625 -1.359375 6.890625 -2.25 C 6.890625 -3.40625 6.046875 -3.90625 5.25 -4.0625 L 5.25 -4.09375 C 6.703125 -4.265625 7.3125 -5.078125 7.3125 -5.90625 C 7.3125 -6.46875 7.09375 -6.921875 6.625 -7.1875 C 6.15625 -7.484375 5.4375 -7.5625 4.65625 -7.546875 L 2.03125 -7.546875 L 1.96875 -7.234375 L 2.609375 -7.171875 C 2.859375 -7.140625 2.921875 -7.015625 2.828125 -6.640625 L 1.546875 -0.90625 C 1.46875 -0.546875 1.359375 -0.421875 1.09375 -0.375 L 0.484375 -0.3125 Z M 0.421875 0 "/>
</symbol>
<symbol overflow="visible" id="glyph0-2">
<path style="stroke:none;" d="M 7.078125 -2.03125 C 6.484375 -0.9375 5.921875 -0.21875 4.578125 -0.21875 C 3.3125 -0.21875 2.40625 -1.03125 2.40625 -2.71875 C 2.40625 -3.703125 2.671875 -4.90625 3.203125 -5.78125 C 3.734375 -6.703125 4.609375 -7.328125 5.765625 -7.328125 C 7.125 -7.328125 7.609375 -6.6875 7.546875 -5.5 L 7.875 -5.5 L 8.265625 -7.125 C 7.640625 -7.53125 6.625 -7.703125 5.859375 -7.703125 C 3.8125 -7.703125 2.625 -6.75 1.984375 -5.71875 C 1.390625 -4.75 1.25 -3.75 1.25 -3 C 1.25 -1.5625 1.953125 0.15625 4.65625 0.15625 C 5.4375 0.15625 6.171875 0.046875 6.875 -0.296875 L 7.40625 -2.03125 Z M 7.078125 -2.03125 "/>
</symbol>
<symbol overflow="visible" id="glyph1-0">
<path style="stroke:none;" d=""/>
</symbol>
<symbol overflow="visible" id="glyph1-1">
<path style="stroke:none;" d="M 6.921875 0.15625 L 6.921875 -3.8125 C 6.921875 -5.140625 5.5 -5.984375 3.921875 -5.984375 C 2.359375 -5.984375 0.921875 -5.140625 0.921875 -3.8125 L 0.921875 0.15625 L 1.5625 0.15625 L 1.5625 -3.8125 C 1.5625 -4.6875 2.84375 -5.375 3.921875 -5.375 C 4.984375 -5.375 6.296875 -4.6875 6.296875 -3.8125 L 6.296875 0.15625 Z M 6.921875 0.15625 "/>
</symbol>
</g>
<clipPath id="clip1">
  <path d="M 0.371094 11 L 149.628906 11 L 149.628906 111.144531 L 0.371094 111.144531 Z M 0.371094 11 "/>
</clipPath>
</defs>
<g id="surface1">
<path style=" stroke:none;fill-rule:evenodd;fill:rgb(79.998779%,79.998779%,100%);fill-opacity:1;" d="M 89.058594 64.628906 C 89.058594 41.339844 70.179688 22.460938 46.886719 22.460938 C 23.597656 22.460938 4.71875 41.339844 4.71875 64.628906 C 4.71875 87.917969 23.597656 106.800781 46.886719 106.800781 C 70.179688 106.800781 89.058594 87.917969 89.058594 64.628906 Z M 145.285156 64.628906 C 145.285156 41.339844 126.40625 22.460938 103.113281 22.460938 C 79.824219 22.460938 60.945312 41.339844 60.945312 64.628906 C 60.945312 87.917969 79.824219 106.800781 103.113281 106.800781 C 126.40625 106.800781 145.285156 87.917969 145.285156 64.628906 Z M 145.285156 64.628906 "/>
<g clip-path="url(#clip1)" clip-rule="nonzero">
<path style="fill:none;stroke-width:0.79701;stroke-linecap:butt;stroke-linejoin:miter;stroke:rgb(50%,50%,100%);stroke-opacity:1;stroke-miterlimit:10;" d="M 42.520811 0.000196734 C 42.520811 23.48273 23.485071 42.518471 -0.00140171 42.518471 C -23.483935 42.518471 -42.519676 23.48273 -42.519676 0.000196734 C -42.519676 -23.482337 -23.483935 -42.522016 -0.00140171 -42.522016 C 23.485071 -42.522016 42.520811 -23.482337 42.520811 0.000196734 Z M 99.214469 0.000196734 C 99.214469 23.48273 80.178729 42.518471 56.692256 42.518471 C 33.209723 42.518471 14.173982 23.48273 14.173982 0.000196734 C 14.173982 -23.482337 33.209723 -42.522016 56.692256 -42.522016 C 80.178729 -42.522016 99.214469 -23.482337 99.214469 0.000196734 Z M 99.214469 0.000196734 " transform="matrix(0.991761,0,0,-0.991761,46.888109,64.629101)"/>
</g>
<g style="fill:rgb(0%,0%,0%);fill-opacity:1;">
  <use xlink:href="#glyph0-1" x="42.886353" y="68.443414"/>
</g>
<g style="fill:rgb(0%,0%,0%);fill-opacity:1;">
  <use xlink:href="#glyph0-2" x="98.697707" y="68.361098"/>
</g>
<path style="fill:none;stroke-width:0.638;stroke-linecap:butt;stroke-linejoin:miter;stroke:rgb(0%,0%,0%);stroke-opacity:1;stroke-miterlimit:10;" d="M 0.00123556 0.000486975 L 27.095558 0.000486975 " transform="matrix(0.991761,0,0,-0.991761,61.565181,8.379389)"/>
<g style="fill:rgb(0%,0%,0%);fill-opacity:1;">
  <use xlink:href="#glyph0-1" x="61.565181" y="18.22361"/>
</g>
<g style="fill:rgb(0%,0%,0%);fill-opacity:1;">
  <use xlink:href="#glyph1-1" x="71.017656" y="18.22361"/>
</g>
<g style="fill:rgb(0%,0%,0%);fill-opacity:1;">
  <use xlink:href="#glyph0-2" x="79.960365" y="18.22361"/>
</g>
</g>
</svg>
