<?xml version="1.0" encoding="UTF-8"?>
<svg xmlns="http://www.w3.org/2000/svg" xmlns:xlink="http://www.w3.org/1999/xlink" width="169.761pt" height="169.761pt" viewBox="0 0 169.761 169.761" version="1.2">
<defs>
<g>
<symbol overflow="visible" id="glyph0-0">
<path style="stroke:none;" d=""/>
</symbol>
<symbol overflow="visible" id="glyph0-1">
<path style="stroke:none;" d="M 1.640625 -4.265625 C 1.828125 -4.640625 2.15625 -5.046875 2.3125 -5.046875 C 2.546875 -5.046875 2.578125 -4.34375 2.625 -3.65625 L 2.625 -3.546875 C 2.625 -3.515625 2.609375 -3.5 2.59375 -3.46875 C 1.953125 -2.265625 1.109375 -1.109375 0.265625 0.078125 L 0.90625 0 L 2.671875 -2.96875 L 2.78125 -0.90625 C 2.8125 -0.390625 2.859375 0.09375 3.34375 0.09375 C 3.8125 0.09375 4.25 -0.34375 4.5 -0.96875 L 4.328125 -1.078125 C 4.140625 -0.6875 3.84375 -0.296875 3.6875 -0.296875 C 3.40625 -0.296875 3.40625 -0.90625 3.375 -1.671875 L 3.234375 -4.4375 C 3.21875 -4.84375 3.015625 -5.4375 2.625 -5.4375 C 2.09375 -5.4375 1.71875 -4.984375 1.46875 -4.375 Z M 1.640625 -4.265625 "/>
</symbol>
<symbol overflow="visible" id="glyph1-0">
<path style="stroke:none;" d=""/>
</symbol>
<symbol overflow="visible" id="glyph1-1">
<path style="stroke:none;" d="M 2.71875 0 L 2.71875 -0.1875 L 2.1875 -0.21875 C 2.0625 -0.234375 1.984375 -0.28125 1.984375 -0.53125 L 1.984375 -4.1875 L 1.953125 -4.234375 L 0.671875 -4.015625 L 0.671875 -3.859375 L 1.25 -3.78125 C 1.359375 -3.78125 1.40625 -3.71875 1.40625 -3.546875 L 1.40625 -0.53125 C 1.40625 -0.40625 1.390625 -0.328125 1.34375 -0.296875 C 1.3125 -0.25 1.265625 -0.234375 1.203125 -0.21875 L 0.671875 -0.1875 L 0.671875 0 Z M 2.71875 0 "/>
</symbol>
<symbol overflow="visible" id="glyph1-2">
<path style="stroke:none;" d="M 0.8125 -2.28125 C 0.8125 -2.171875 0.84375 -2.109375 0.921875 -2.109375 C 1 -2.109375 1.15625 -2.171875 1.46875 -2.171875 C 1.984375 -2.171875 2.28125 -1.6875 2.28125 -1.140625 C 2.28125 -0.40625 1.921875 -0.140625 1.484375 -0.140625 C 1.0625 -0.140625 0.796875 -0.453125 0.6875 -0.796875 C 0.640625 -0.921875 0.578125 -0.96875 0.5 -0.96875 C 0.390625 -0.96875 0.171875 -0.859375 0.171875 -0.640625 C 0.171875 -0.359375 0.59375 0.078125 1.46875 0.078125 C 2.375 0.078125 2.9375 -0.375 2.9375 -1.171875 C 2.9375 -2.015625 2.21875 -2.25 1.890625 -2.28125 L 1.890625 -2.3125 C 2.21875 -2.375 2.765625 -2.625 2.765625 -3.234375 C 2.765625 -3.921875 2.21875 -4.234375 1.546875 -4.234375 C 0.734375 -4.234375 0.328125 -3.75 0.328125 -3.484375 C 0.328125 -3.296875 0.546875 -3.1875 0.640625 -3.1875 C 0.71875 -3.1875 0.765625 -3.234375 0.796875 -3.3125 C 0.921875 -3.734375 1.15625 -4.015625 1.515625 -4.015625 C 2 -4.015625 2.125 -3.578125 2.125 -3.234375 C 2.125 -2.859375 1.984375 -2.390625 1.46875 -2.390625 C 1.15625 -2.390625 1 -2.453125 0.921875 -2.453125 C 0.84375 -2.453125 0.8125 -2.390625 0.8125 -2.28125 Z M 0.8125 -2.28125 "/>
</symbol>
<symbol overflow="visible" id="glyph1-3">
<path style="stroke:none;" d="M 3.015625 -0.828125 L 2.84375 -0.859375 C 2.71875 -0.515625 2.59375 -0.46875 2.34375 -0.46875 L 0.75 -0.46875 C 0.84375 -0.796875 1.21875 -1.234375 1.796875 -1.65625 C 2.390625 -2.09375 2.84375 -2.375 2.84375 -3.0625 C 2.84375 -3.9375 2.28125 -4.234375 1.625 -4.234375 C 0.765625 -4.234375 0.328125 -3.71875 0.328125 -3.390625 C 0.328125 -3.171875 0.5625 -3.078125 0.671875 -3.078125 C 0.78125 -3.078125 0.828125 -3.140625 0.859375 -3.25 C 0.953125 -3.671875 1.1875 -4.015625 1.578125 -4.015625 C 2.0625 -4.015625 2.1875 -3.609375 2.1875 -3.15625 C 2.1875 -2.484375 1.859375 -2.109375 1.3125 -1.640625 C 0.546875 -0.96875 0.28125 -0.546875 0.171875 -0.0625 L 0.234375 0 L 2.796875 0 Z M 3.015625 -0.828125 "/>
</symbol>
<symbol overflow="visible" id="glyph1-4">
<path style="stroke:none;" d="M 1.640625 -4.015625 C 2.234375 -4.015625 2.40625 -3.09375 2.40625 -2.078125 C 2.40625 -1.0625 2.234375 -0.140625 1.640625 -0.140625 C 1.0625 -0.140625 0.890625 -1.0625 0.890625 -2.078125 C 0.890625 -3.09375 1.0625 -4.015625 1.640625 -4.015625 Z M 1.640625 -4.234375 C 0.625 -4.234375 0.25 -3.328125 0.25 -2.078125 C 0.25 -0.828125 0.625 0.078125 1.640625 0.078125 C 2.671875 0.078125 3.046875 -0.828125 3.046875 -2.078125 C 3.046875 -3.328125 2.671875 -4.234375 1.640625 -4.234375 Z M 1.640625 -4.234375 "/>
</symbol>
<symbol overflow="visible" id="glyph2-0">
<path style="stroke:none;" d=""/>
</symbol>
<symbol overflow="visible" id="glyph2-1">
<path style="stroke:none;" d="M 3.71875 -1.015625 C 3.546875 -0.6875 3.34375 -0.296875 3.140625 -0.296875 C 3 -0.296875 2.9375 -0.46875 2.78125 -1.109375 L 2.546875 -2.078125 C 2.8125 -2.546875 3.1875 -3.125 3.390625 -3.125 C 3.453125 -3.125 3.515625 -3.109375 3.59375 -3.078125 C 3.671875 -3.046875 3.75 -3.015625 3.828125 -3.015625 C 4 -3.015625 4.140625 -3.171875 4.140625 -3.359375 C 4.140625 -3.59375 3.984375 -3.671875 3.78125 -3.671875 C 3.390625 -3.671875 3.0625 -3.328125 2.796875 -2.921875 L 2.484375 -2.421875 L 2.46875 -2.421875 L 2.171875 -3.65625 L 2.125 -3.671875 L 0.921875 -3.3125 L 0.9375 -3.140625 L 1.484375 -3.171875 C 1.625 -3.1875 1.671875 -3.140625 1.75 -2.8125 L 2.015625 -1.75 L 1.8125 -1.390625 C 1.5 -0.859375 1.21875 -0.46875 1.046875 -0.46875 C 0.96875 -0.46875 0.90625 -0.5 0.828125 -0.546875 C 0.765625 -0.578125 0.671875 -0.65625 0.546875 -0.65625 C 0.359375 -0.65625 0.234375 -0.46875 0.234375 -0.28125 C 0.234375 -0.078125 0.40625 0.09375 0.703125 0.09375 C 1.1875 0.09375 1.484375 -0.40625 1.78125 -0.90625 L 2.078125 -1.390625 L 2.09375 -1.390625 L 2.21875 -0.8125 C 2.359375 -0.234375 2.5 0.09375 2.875 0.09375 C 3.40625 0.09375 3.6875 -0.46875 3.90625 -0.90625 Z M 3.71875 -1.015625 "/>
</symbol>
<symbol overflow="visible" id="glyph2-2">
<path style="stroke:none;" d="M 0.515625 -3.328125 L 0.546875 -3.140625 L 1.046875 -3.15625 C 1.203125 -3.171875 1.234375 -3.046875 1.296875 -2.65625 C 1.375 -2.09375 1.53125 -0.6875 1.53125 -0.09375 C 1.53125 0.125 1.53125 0.421875 1.359375 0.8125 C 1.234375 1.125 1.046875 1.328125 0.890625 1.328125 C 0.78125 1.328125 0.703125 1.25 0.59375 1.109375 C 0.5 0.984375 0.453125 0.9375 0.34375 0.9375 C 0.140625 0.9375 -0.03125 1.15625 -0.03125 1.375 C -0.03125 1.5625 0.171875 1.765625 0.5 1.765625 C 1.125 1.765625 1.390625 1.3125 2.03125 0.203125 C 2.1875 -0.046875 2.625 -0.828125 3.078125 -1.578125 C 3.5 -2.265625 3.953125 -2.96875 3.953125 -3.265625 C 3.953125 -3.53125 3.875 -3.671875 3.828125 -3.671875 C 3.6875 -3.671875 3.4375 -3.625 3.25 -3.5 C 3.265625 -3.234375 3.25 -2.796875 3.15625 -2.484375 C 3.046875 -2.078125 2.609375 -1.28125 2.125 -0.453125 L 2.109375 -0.453125 C 2.046875 -1.5625 1.90625 -3.109375 1.8125 -3.65625 L 1.75 -3.671875 Z M 0.515625 -3.328125 "/>
</symbol>
<symbol overflow="visible" id="glyph3-0">
<path style="stroke:none;" d=""/>
</symbol>
<symbol overflow="visible" id="glyph3-1">
<path style="stroke:none;" d="M 4.65625 -0.546875 L 1.265625 -2.0625 L 4.65625 -3.578125 L 4.65625 -4.046875 L 0.625 -2.328125 L 0.625 -1.8125 L 4.65625 -0.09375 Z M 4.65625 -0.546875 "/>
</symbol>
<symbol overflow="visible" id="glyph4-0">
<path style="stroke:none;" d=""/>
</symbol>
<symbol overflow="visible" id="glyph4-1">
<path style="stroke:none;" d="M 1.9375 -4.734375 C 2.640625 -4.734375 2.84375 -3.640625 2.84375 -2.453125 C 2.84375 -1.25 2.640625 -0.171875 1.9375 -0.171875 C 1.25 -0.171875 1.046875 -1.25 1.046875 -2.453125 C 1.046875 -3.640625 1.25 -4.734375 1.9375 -4.734375 Z M 1.9375 -4.984375 C 0.734375 -4.984375 0.296875 -3.90625 0.296875 -2.453125 C 0.296875 -0.984375 0.734375 0.09375 1.9375 0.09375 C 3.15625 0.09375 3.578125 -0.984375 3.578125 -2.453125 C 3.578125 -3.90625 3.15625 -4.984375 1.9375 -4.984375 Z M 1.9375 -4.984375 "/>
</symbol>
</g>
<clipPath id="clip1">
  <path d="M 4.179688 4.175781 L 165.347656 4.175781 L 165.347656 165.34375 L 4.179688 165.34375 Z M 4.179688 4.175781 "/>
</clipPath>
<clipPath id="clip2">
  <path d="M 4.179688 4.175781 L 165.347656 4.175781 L 165.347656 165.34375 L 4.179688 165.34375 Z M 4.179688 4.175781 "/>
</clipPath>
<clipPath id="clip3">
  <path d="M 4.179688 4.175781 L 165.347656 4.175781 L 165.347656 165.34375 L 4.179688 165.34375 Z M 4.179688 4.175781 "/>
</clipPath>
<clipPath id="clip4">
  <path d="M 84 4.175781 L 86 4.175781 L 86 165.34375 L 84 165.34375 Z M 84 4.175781 "/>
</clipPath>
<clipPath id="clip5">
  <path d="M 4.179688 84 L 165.347656 84 L 165.347656 86 L 4.179688 86 Z M 4.179688 84 "/>
</clipPath>
</defs>
<g id="surface1">
<path style="fill:none;stroke-width:0.3985;stroke-linecap:butt;stroke-linejoin:miter;stroke:rgb(0%,0%,0%);stroke-opacity:1;stroke-miterlimit:10;" d="M 0.00157192 0.000468877 L 0.00157192 161.39534 L 161.396443 161.39534 L 161.396443 0.000468877 Z M 0.00157192 0.000468877 " transform="matrix(0.998594,0,0,-0.998594,4.178118,165.344218)"/>
<g clip-path="url(#clip1)" clip-rule="nonzero">
<path style="fill:none;stroke-width:1.19553;stroke-linecap:butt;stroke-linejoin:miter;stroke:rgb(100%,0%,0%);stroke-opacity:1;stroke-miterlimit:10;" d="M 0.00157192 319.633429 C 0.00157192 319.633429 1.179009 309.302499 1.62886 305.441602 C 2.082623 301.584617 2.806296 295.525317 3.260059 291.824802 C 3.713822 288.124287 4.437496 282.315339 4.891259 278.771294 C 5.34111 275.223337 6.068695 269.66083 6.522458 266.265431 C 6.972309 262.870033 7.699895 257.54223 8.149746 254.295478 C 8.603509 251.048726 9.327183 245.95954 9.780946 242.853611 C 10.234709 239.751593 10.958382 234.889289 11.412145 231.924183 C 11.865908 228.962988 12.589582 224.323653 13.043345 221.49937 C 13.493196 218.675087 14.220781 214.25481 14.670632 211.563527 C 15.124395 208.876155 15.848069 204.667112 16.301832 202.108828 C 16.755595 199.550544 17.479269 195.548824 17.933031 193.119628 C 18.386794 190.68652 19.110468 186.892123 19.564231 184.584191 C 20.014082 182.276258 20.741668 178.677449 21.191519 176.494693 C 21.645282 174.308025 22.368955 170.900891 22.822718 168.835487 C 23.276481 166.766172 24.000155 163.546802 24.453918 161.594839 C 24.907681 159.642876 25.631354 156.603447 26.085117 154.761013 C 26.534969 152.918579 27.262554 150.05909 27.712405 148.326185 C 28.166168 146.59328 28.893753 143.901996 29.343605 142.270797 C 29.797368 140.643509 30.521041 138.120431 30.974804 136.590937 C 31.428567 135.065354 32.152241 132.698746 32.606004 131.270957 C 33.055855 129.843169 33.78344 127.63303 34.233291 126.303035 C 34.687054 124.969129 35.41464 122.907637 35.864491 121.667612 C 36.318254 120.427588 37.041928 118.510831 37.49569 117.360776 C 37.949453 116.20681 38.673127 114.430876 39.12689 113.362968 C 39.576741 112.295061 40.304327 110.656038 40.754178 109.670277 C 41.207941 108.684516 41.935526 107.170669 42.385377 106.263143 C 42.83914 105.359529 43.562814 103.966946 44.016577 103.137655 C 44.47034 102.308364 45.194013 101.037046 45.647776 100.278166 C 46.097628 99.519287 46.825213 98.361409 47.275064 97.669029 C 47.728827 96.980561 48.456412 95.928301 48.906264 95.306333 C 49.360027 94.680453 50.0837 93.733809 50.537463 93.170518 C 50.991226 92.611137 51.7149 91.758376 52.168663 91.257672 C 52.618514 90.753056 53.346099 89.994177 53.79595 89.548238 C 54.249713 89.098386 54.977299 88.429477 55.42715 88.03439 C 55.880913 87.639304 56.604587 87.04863 57.05835 86.704396 C 57.512112 86.360162 58.235786 85.843811 58.689549 85.546518 C 59.1394 85.245313 59.866986 84.803285 60.316837 84.54511 C 60.7706 84.286934 61.498185 83.911407 61.948036 83.692349 C 62.401799 83.477202 63.125473 83.160351 63.579236 82.976498 C 64.032999 82.796558 64.756672 82.534471 65.210435 82.385824 C 65.660287 82.237178 66.387872 82.025943 66.837723 81.908591 C 67.291486 81.787327 68.019072 81.623033 68.468923 81.529151 C 68.922686 81.435269 69.646359 81.310093 70.100122 81.239682 C 70.553885 81.16927 71.277559 81.075388 71.731322 81.024535 C 72.181173 80.973683 72.908758 80.911095 73.35861 80.875889 C 73.812372 80.844595 74.539958 80.801566 74.989809 80.782007 C 75.443572 80.762448 76.167246 80.738978 76.621009 80.727242 C 77.074772 80.715507 77.798445 80.707684 78.252208 80.703772 C 78.702059 80.69986 79.429645 80.69986 79.883408 80.695948 C 80.333259 80.695948 81.060844 80.69986 81.510695 80.695948 C 81.964458 80.695948 82.688132 80.695948 83.141895 80.692037 C 83.595658 80.688125 84.319332 80.67639 84.773094 80.668566 C 85.222946 80.656831 85.950531 80.63336 86.404294 80.613802 C 86.854145 80.594243 87.581731 80.551214 88.031582 80.516008 C 88.485345 80.484714 89.209018 80.418214 89.662781 80.371273 C 90.116544 80.320421 90.840218 80.226539 91.293981 80.156127 C 91.743832 80.085716 92.471417 79.96054 92.92518 79.866658 C 93.375032 79.772776 94.102617 79.608482 94.552468 79.487218 C 95.006231 79.369865 95.729905 79.158631 96.183668 79.009984 C 96.637431 78.861338 97.361104 78.599251 97.814867 78.415399 C 98.264718 78.235458 98.992304 77.918606 99.446067 77.70346 C 99.895918 77.484402 100.623503 77.108874 101.073354 76.850699 C 101.527117 76.592523 102.250791 76.150496 102.704554 75.849291 C 103.158317 75.551998 103.881991 75.039559 104.335754 74.691413 C 104.785605 74.347179 105.51319 73.756505 105.966953 73.361418 C 106.416804 72.966332 107.14439 72.297422 107.594241 71.847571 C 108.048004 71.401632 108.771677 70.642752 109.22544 70.142048 C 109.679203 69.637433 110.402877 68.788583 110.85664 68.225291 C 111.306491 67.661999 112.034076 66.715356 112.487839 66.093388 C 112.937691 65.467508 113.665276 64.415247 114.115127 63.726779 C 114.56889 63.038311 115.292564 61.880434 115.746327 61.121554 C 116.20009 60.362675 116.923763 59.091356 117.377526 58.258154 C 117.827377 57.428863 118.554963 56.040192 119.008726 55.132666 C 119.458577 54.229052 120.186162 52.715205 120.636014 51.729444 C 121.089776 50.743683 121.81345 49.100748 122.267213 48.036752 C 122.720976 46.968845 123.44465 45.19291 123.898413 44.038944 C 124.348264 42.88889 125.075849 40.972133 125.529612 39.732108 C 125.979463 38.492084 126.707049 36.430592 127.1569 35.096685 C 127.610663 33.76669 128.334336 31.556552 128.788099 30.128763 C 129.241862 28.700975 129.965536 26.334366 130.419299 24.808784 C 130.873062 23.283202 131.596735 20.756212 132.050498 19.128924 C 132.50035 17.501636 133.227935 14.810352 133.677786 13.077447 C 134.131549 11.344542 134.855223 8.481142 135.308986 6.638708 C 135.762749 4.800185 136.486422 1.760756 136.940185 -0.191207 C 137.393948 -2.14317 138.117622 -5.36254 138.571385 -7.431855 C 139.021236 -9.497259 139.748821 -12.904393 140.198673 -15.091061 C 140.652435 -17.277728 141.376109 -20.876538 141.829872 -23.180558 C 142.283635 -25.488491 143.007309 -29.282888 143.461072 -31.715996 C 143.914835 -34.145192 144.638508 -38.146912 145.092271 -40.705196 C 145.542122 -43.26348 146.269708 -47.468611 146.719559 -50.159894 C 147.173322 -52.851178 147.896995 -57.271455 148.350758 -60.095738 C 148.804521 -62.920021 149.528195 -67.559356 149.981958 -70.52055 C 150.435721 -73.481745 151.159395 -78.344049 151.613157 -81.449978 C 152.063009 -84.551996 152.790594 -89.641182 153.240445 -92.887934 C 153.694208 -96.138598 154.421794 -101.462489 154.871645 -104.857887 C 155.325408 -108.253286 156.049081 -113.815793 156.502844 -117.36375 C 156.956607 -120.907795 157.680281 -126.716743 158.134044 -130.417258 C 158.583895 -134.117773 159.31148 -140.177073 159.761332 -144.034058 C 160.215095 -147.891043 161.392531 -158.221973 161.392531 -158.221973 " transform="matrix(0.998594,0,0,-0.998594,4.178118,165.344218)"/>
</g>
<g style="fill:rgb(100%,0%,0%);fill-opacity:1;">
  <use xlink:href="#glyph0-1" x="96.505134" y="157.292554"/>
</g>
<g style="fill:rgb(100%,0%,0%);fill-opacity:1;">
  <use xlink:href="#glyph1-1" x="101.240467" y="158.657632"/>
</g>
<g style="fill:rgb(100%,0%,0%);fill-opacity:1;">
  <use xlink:href="#glyph2-1" x="106.171525" y="157.292554"/>
</g>
<g style="fill:rgb(100%,0%,0%);fill-opacity:1;">
  <use xlink:href="#glyph1-2" x="110.461486" y="154.402622"/>
</g>
<path style="fill:none;stroke-width:0.19925;stroke-linecap:butt;stroke-linejoin:miter;stroke:rgb(50%,50%,50%);stroke-opacity:1;stroke-miterlimit:10;" d="M 130.122006 10.91425 L 114.342009 10.91425 " transform="matrix(0.998594,0,0,-0.998594,4.178118,165.344218)"/>
<g clip-path="url(#clip2)" clip-rule="nonzero">
<path style="fill:none;stroke-width:1.19553;stroke-linecap:butt;stroke-linejoin:miter;stroke:rgb(100%,0%,0%);stroke-opacity:1;stroke-miterlimit:10;" d="M 0.00157192 797.504478 C 0.00157192 797.504478 1.179009 766.507775 1.62886 754.932909 C 2.082623 743.358042 2.806296 725.184054 3.260059 714.082509 C 3.713822 702.980964 4.437496 685.55412 4.891259 674.914162 C 5.34111 664.274203 6.068695 647.58668 6.522458 637.396573 C 6.972309 627.210377 7.699895 611.238704 8.149746 601.494536 C 8.603509 591.750368 9.327183 576.478898 9.780946 567.168935 C 10.234709 557.855059 10.958382 543.272057 11.412145 534.384563 C 11.865908 525.493156 12.589582 511.582975 13.043345 503.106214 C 13.493196 494.629453 14.220781 481.372534 14.670632 473.302595 C 15.124395 465.228744 15.848069 452.60944 16.301832 444.930676 C 16.755595 437.251912 17.479269 425.258488 17.933031 417.963075 C 18.386794 410.667662 19.110468 399.28056 19.564231 392.360675 C 20.014082 385.44079 20.741668 374.64045 21.191519 368.084358 C 21.645282 361.528266 22.368955 351.306864 22.822718 345.106741 C 23.276481 338.902707 24.000155 329.244597 24.453918 323.384797 C 24.907681 317.528908 25.631354 308.41062 26.085117 302.88723 C 26.534969 297.363839 27.262554 288.777549 27.712405 283.578834 C 28.166168 278.380119 28.893753 270.306268 29.343605 265.420493 C 29.797368 260.53863 30.521041 252.961571 30.974804 248.380913 C 31.428567 243.804166 32.152241 236.708252 32.606004 232.424887 C 33.055855 228.141521 33.78344 221.511106 34.233291 217.509386 C 34.687054 213.511578 35.41464 207.331014 35.864491 203.61094 C 36.318254 199.886955 37.041928 194.140595 37.49569 190.682608 C 37.949453 187.224622 38.673127 181.896819 39.12689 178.697008 C 39.576741 175.493285 40.304327 170.568392 40.754178 167.61111 C 41.207941 164.657739 41.935526 160.116198 42.385377 157.397532 C 42.83914 154.678866 43.562814 150.508941 44.016577 148.017157 C 44.47034 145.525372 45.194013 141.711417 45.647776 139.434778 C 46.097628 137.15814 46.825213 133.684507 47.275064 131.615191 C 47.728827 129.545876 48.456412 126.393006 48.906264 124.519278 C 49.360027 122.649461 50.0837 119.80562 50.537463 118.119656 C 50.991226 116.433692 51.7149 113.883231 52.168663 112.373296 C 52.618514 110.86336 53.346099 108.586722 53.79595 107.248904 C 54.249713 105.907174 54.977299 103.888711 55.42715 102.707363 C 55.880913 101.522103 56.604587 99.753992 57.05835 98.717378 C 57.512112 97.680765 58.235786 96.139535 58.689549 95.239833 C 59.1394 94.340131 59.866986 93.010136 60.316837 92.239521 C 60.7706 91.472818 61.498185 90.338411 61.948036 89.685149 C 62.401799 89.035798 63.125473 88.085243 63.579236 87.54151 C 64.032999 86.993865 64.756672 86.211515 65.210435 85.765576 C 65.660287 85.319636 66.387872 84.685933 66.837723 84.326052 C 67.291486 83.970083 68.019072 83.469379 68.468923 83.191645 C 68.922686 82.91391 69.646359 82.530559 70.100122 82.319325 C 70.553885 82.112002 71.277559 81.830356 71.731322 81.681709 C 72.181173 81.529151 72.908758 81.337475 73.35861 81.23577 C 73.812372 81.134064 74.539958 81.0128 74.989809 80.950212 C 75.443572 80.887624 76.167246 80.821124 76.621009 80.78983 C 77.074772 80.758536 77.798445 80.731154 78.252208 80.715507 C 78.702059 80.703772 79.429645 80.69986 79.883408 80.69986 C 80.333259 80.695948 81.060844 80.69986 81.510695 80.695948 C 81.964458 80.692037 82.688132 80.692037 83.141895 80.67639 C 83.595658 80.664654 84.319332 80.637272 84.773094 80.605978 C 85.222946 80.574684 85.950531 80.504273 86.404294 80.445597 C 86.854145 80.383009 87.581731 80.261744 88.031582 80.160039 C 88.485345 80.058333 89.209018 79.866658 89.662781 79.714099 C 90.116544 79.565453 90.840218 79.283807 91.293981 79.076484 C 91.743832 78.86525 92.471417 78.481898 92.92518 78.204164 C 93.375032 77.92643 94.102617 77.425726 94.552468 77.069757 C 95.006231 76.709876 95.729905 76.076172 96.183668 75.630233 C 96.637431 75.184293 97.361104 74.401944 97.814867 73.85821 C 98.264718 73.314477 98.992304 72.363922 99.446067 71.71066 C 99.895918 71.057398 100.623503 69.926902 101.073354 69.156288 C 101.527117 68.385673 102.250791 67.055678 102.704554 66.159887 C 103.158317 65.260185 103.881991 63.718956 104.335754 62.682342 C 104.785605 61.645729 105.51319 59.873706 105.966953 58.692358 C 106.416804 57.507098 107.14439 55.492547 107.594241 54.150817 C 108.048004 52.812998 108.771677 50.53636 109.22544 49.026425 C 109.679203 47.520401 110.402877 44.966029 110.85664 43.280065 C 111.306491 41.598013 112.034076 38.754171 112.487839 36.880443 C 112.937691 35.006715 113.665276 31.857756 114.115127 29.788441 C 114.56889 27.719126 115.292564 24.24158 115.746327 21.968854 C 116.20009 19.692216 116.923763 15.87826 117.377526 13.386476 C 117.827377 10.894691 118.554963 6.724766 119.008726 4.0061 C 119.458577 1.287434 120.186162 -3.254107 120.636014 -6.207478 C 121.089776 -9.160848 121.81345 -14.089653 122.267213 -17.289464 C 122.720976 -20.489275 123.44465 -25.820989 123.898413 -29.275064 C 124.348264 -32.733051 125.075849 -38.479411 125.529612 -42.199484 C 125.979463 -45.92347 126.707049 -52.104034 127.1569 -56.101842 C 127.610663 -60.09965 128.334336 -66.730065 128.788099 -71.013431 C 129.241862 -75.296796 129.965536 -82.39271 130.419299 -86.969457 C 130.873062 -91.550115 131.596735 -99.127174 132.050498 -104.009038 C 132.50035 -108.894813 133.227935 -116.968663 133.677786 -122.167378 C 134.131549 -127.362182 134.855223 -135.952384 135.308986 -141.475774 C 135.762749 -146.995252 136.486422 -156.11354 136.940185 -161.969429 C 137.393948 -167.82923 138.117622 -177.487339 138.571385 -183.691374 C 139.021236 -189.891497 139.748821 -200.112898 140.198673 -206.66899 C 140.652435 -213.225082 141.376109 -224.021511 141.829872 -230.941396 C 142.283635 -237.861281 143.007309 -249.248383 143.461072 -256.543796 C 143.914835 -263.835297 144.638508 -275.832633 145.092271 -283.507485 C 145.542122 -291.186249 146.269708 -303.805553 146.719559 -311.875492 C 147.173322 -319.949343 147.896995 -333.206262 148.350758 -341.683023 C 148.804521 -350.155872 149.528195 -364.069965 149.981958 -372.95746 C 150.435721 -381.844955 151.159395 -396.427957 151.613157 -405.73792 C 152.063009 -415.051796 152.790594 -430.319354 153.240445 -440.063522 C 153.694208 -449.80769 154.421794 -465.779363 154.871645 -475.965558 C 155.325408 -486.151754 156.049081 -502.843189 156.502844 -513.483147 C 156.956607 -524.123106 157.680281 -541.546038 158.134044 -552.647583 C 158.583895 -563.749128 159.31148 -581.923116 159.761332 -593.497983 C 160.215095 -605.072849 161.392531 -636.06564 161.392531 -636.06564 " transform="matrix(0.998594,0,0,-0.998594,4.178118,165.344218)"/>
</g>
<g style="fill:rgb(100%,0%,0%);fill-opacity:1;">
  <use xlink:href="#glyph0-1" x="89.73866" y="119.412883"/>
</g>
<g style="fill:rgb(100%,0%,0%);fill-opacity:1;">
  <use xlink:href="#glyph1-3" x="94.473994" y="120.777961"/>
</g>
<g style="fill:rgb(100%,0%,0%);fill-opacity:1;">
  <use xlink:href="#glyph2-1" x="99.405051" y="119.412883"/>
</g>
<g style="fill:rgb(100%,0%,0%);fill-opacity:1;">
  <use xlink:href="#glyph1-2" x="103.695012" y="116.52395"/>
</g>
<path style="fill:none;stroke-width:0.19925;stroke-linecap:butt;stroke-linejoin:miter;stroke:rgb(50%,50%,50%);stroke-opacity:1;stroke-miterlimit:10;" d="M 94.572027 72.946773 L 94.572027 57.166775 " transform="matrix(0.998594,0,0,-0.998594,4.178118,165.344218)"/>
<g clip-path="url(#clip3)" clip-rule="nonzero">
<path style="fill:none;stroke-width:1.19553;stroke-linecap:butt;stroke-linejoin:miter;stroke:rgb(0%,0%,100%);stroke-opacity:1;stroke-miterlimit:10;" d="M 0.00157192 160.343079 C 0.00157192 160.343079 1.179009 156.896828 1.62886 155.613774 C 2.082623 154.326809 2.806296 152.308346 3.260059 151.072233 C 3.713822 149.840032 4.437496 147.903716 4.891259 146.722368 C 5.34111 145.541019 6.068695 143.682938 6.522458 142.552443 C 6.972309 141.421947 7.699895 139.646013 8.149746 138.562458 C 8.603509 137.482815 9.327183 135.785116 9.780946 134.748503 C 10.234709 133.715801 10.958382 132.096336 11.412145 131.106664 C 11.865908 130.120903 12.589582 128.57185 13.043345 127.63303 C 13.493196 126.690299 14.220781 125.215569 14.670632 124.319778 C 15.124395 123.423988 15.848069 122.01967 16.301832 121.166908 C 16.755595 120.314147 17.479269 118.98024 17.933031 118.170508 C 18.386794 117.360776 19.110468 116.097281 19.564231 115.326666 C 20.014082 114.556052 20.741668 113.359056 21.191519 112.627559 C 21.645282 111.899974 22.368955 110.765567 22.822718 110.077099 C 23.276481 109.388631 24.000155 108.3129 24.453918 107.663549 C 24.907681 107.010287 25.631354 105.997144 26.085117 105.386911 C 26.534969 104.772766 27.262554 103.8183 27.712405 103.239361 C 28.166168 102.660422 28.893753 101.764631 29.343605 101.220898 C 29.797368 100.681076 30.521041 99.836139 30.974804 99.327611 C 31.428567 98.819084 32.152241 98.032822 32.606004 97.555589 C 33.055855 97.078355 33.78344 96.342946 34.233291 95.897007 C 34.687054 95.454979 35.41464 94.766511 35.864491 94.355778 C 36.318254 93.941132 37.041928 93.303517 37.49569 92.916254 C 37.949453 92.532902 38.673127 91.942228 39.12689 91.586259 C 39.576741 91.23029 40.304327 90.682645 40.754178 90.354058 C 41.207941 90.025471 41.935526 89.520855 42.385377 89.219651 C 42.83914 88.918446 43.562814 88.452948 44.016577 88.179125 C 44.47034 87.901391 45.194013 87.47501 45.647776 87.224658 C 46.097628 86.970395 46.825213 86.583131 47.275064 86.35625 C 47.728827 86.125457 48.456412 85.773399 48.906264 85.566077 C 49.360027 85.358754 50.0837 85.041902 50.537463 84.854138 C 50.991226 84.666374 51.7149 84.384728 52.168663 84.216523 C 52.618514 84.048318 53.346099 83.797966 53.79595 83.649319 C 54.249713 83.496761 54.977299 83.273791 55.42715 83.144704 C 55.880913 83.011704 56.604587 82.816117 57.05835 82.698764 C 57.512112 82.585323 58.235786 82.413206 58.689549 82.311501 C 59.1394 82.213707 59.866986 82.065061 60.316837 81.979002 C 60.7706 81.892944 61.498185 81.767768 61.948036 81.697356 C 62.401799 81.623033 63.125473 81.517416 63.579236 81.45874 C 64.032999 81.396152 64.756672 81.310093 65.210435 81.25924 C 65.660287 81.212299 66.387872 81.141888 66.837723 81.098859 C 67.291486 81.059741 68.019072 81.004977 68.468923 80.973683 C 68.922686 80.942389 69.646359 80.899359 70.100122 80.875889 C 70.553885 80.85633 71.277559 80.825036 71.731322 80.805477 C 72.181173 80.78983 72.908758 80.770272 73.35861 80.758536 C 73.812372 80.746801 74.539958 80.731154 74.989809 80.727242 C 75.443572 80.719419 76.167246 80.711595 76.621009 80.707684 C 77.074772 80.703772 77.798445 80.69986 78.252208 80.69986 C 78.702059 80.69986 79.429645 80.695948 79.883408 80.695948 C 80.333259 80.695948 81.060844 80.695948 81.510695 80.695948 C 81.964458 80.695948 82.688132 80.695948 83.141895 80.695948 C 83.595658 80.692037 84.319332 80.692037 84.773094 80.688125 C 85.222946 80.684213 85.950531 80.67639 86.404294 80.668566 C 86.854145 80.660743 87.581731 80.649007 88.031582 80.637272 C 88.485345 80.625537 89.209018 80.605978 89.662781 80.586419 C 90.116544 80.570772 90.840218 80.539478 91.293981 80.516008 C 91.743832 80.492538 92.471417 80.449508 92.92518 80.422126 C 93.375032 80.390832 94.102617 80.332156 94.552468 80.293038 C 95.006231 80.253921 95.729905 80.183509 96.183668 80.132657 C 96.637431 80.085716 97.361104 79.999657 97.814867 79.937069 C 98.264718 79.878393 98.992304 79.772776 99.446067 79.698452 C 99.895918 79.628041 100.623503 79.498953 101.073354 79.416806 C 101.527117 79.330748 102.250791 79.182101 102.704554 79.080396 C 103.158317 78.982602 103.881991 78.810485 104.335754 78.697045 C 104.785605 78.579692 105.51319 78.384105 105.966953 78.251105 C 106.416804 78.122017 107.14439 77.895136 107.594241 77.746489 C 108.048004 77.597843 108.771677 77.347491 109.22544 77.179286 C 109.679203 77.01108 110.402877 76.725523 110.85664 76.541671 C 111.306491 76.353907 112.034076 76.037055 112.487839 75.829732 C 112.937691 75.622409 113.665276 75.270352 114.115127 75.039559 C 114.56889 74.812677 115.292564 74.425414 115.746327 74.17115 C 116.20009 73.920798 116.923763 73.494418 117.377526 73.216684 C 117.827377 72.942861 118.554963 72.477363 119.008726 72.176158 C 119.458577 71.874953 120.186162 71.370338 120.636014 71.041751 C 121.089776 70.713164 121.81345 70.165519 122.267213 69.80955 C 122.720976 69.453581 123.44465 68.862906 123.898413 68.479555 C 124.348264 68.092292 125.075849 67.454677 125.529612 67.040031 C 125.979463 66.629297 126.707049 65.94083 127.1569 65.498802 C 127.610663 65.052862 128.334336 64.317453 128.788099 63.84022 C 129.241862 63.362987 129.965536 62.576725 130.419299 62.068198 C 130.873062 61.55967 131.596735 60.718644 132.050498 60.174911 C 132.50035 59.631178 133.227935 58.735387 133.677786 58.156448 C 134.131549 57.581421 134.855223 56.626954 135.308986 56.012809 C 135.762749 55.398665 136.486422 54.385522 136.940185 53.736171 C 137.393948 53.082909 138.117622 52.01109 138.571385 51.322622 C 139.021236 50.630242 139.748821 49.495835 140.198673 48.768249 C 140.652435 48.040664 141.376109 46.839757 141.829872 46.069142 C 142.283635 45.302439 143.007309 44.035033 143.461072 43.2253 C 143.914835 42.415568 144.638508 41.081662 145.092271 40.2289 C 145.542122 39.376139 146.269708 37.975733 146.719559 37.079942 C 147.173322 36.18024 147.896995 34.709422 148.350758 33.76669 C 148.804521 32.823959 149.528195 31.278818 149.981958 30.293057 C 150.435721 29.303384 151.159395 27.68392 151.613157 26.647306 C 152.063009 25.614604 152.790594 23.916905 153.240445 22.83335 C 153.694208 21.753708 154.421794 19.977773 154.871645 18.847278 C 155.325408 17.71287 156.049081 15.858701 156.502844 14.677353 C 156.956607 13.496005 157.680281 11.559689 158.134044 10.327487 C 158.583895 9.091375 159.31148 7.072912 159.761332 5.785946 C 160.215095 4.498981 161.392531 1.056641 161.392531 1.056641 " transform="matrix(0.998594,0,0,-0.998594,4.178118,165.344218)"/>
</g>
<g style="fill:rgb(0%,0%,100%);fill-opacity:1;">
  <use xlink:href="#glyph0-1" x="147.716036" y="115.760026"/>
</g>
<g style="fill:rgb(0%,0%,100%);fill-opacity:1;">
  <use xlink:href="#glyph1-4" x="152.45137" y="117.126103"/>
</g>
<g style="fill:rgb(0%,0%,100%);fill-opacity:1;">
  <use xlink:href="#glyph2-1" x="157.382427" y="115.760026"/>
</g>
<g style="fill:rgb(0%,0%,100%);fill-opacity:1;">
  <use xlink:href="#glyph1-2" x="161.672388" y="112.871093"/>
</g>
<path style="fill:none;stroke-width:0.19925;stroke-linecap:butt;stroke-linejoin:miter;stroke:rgb(50%,50%,50%);stroke-opacity:1;stroke-miterlimit:10;" d="M 152.630212 28.368476 L 152.630212 44.148473 " transform="matrix(0.998594,0,0,-0.998594,4.178118,165.344218)"/>
<g style="fill:rgb(0%,0%,0%);fill-opacity:1;">
  <use xlink:href="#glyph2-1" x="156.015352" y="97.453799"/>
</g>
<g style="fill:rgb(0%,0%,0%);fill-opacity:1;">
  <use xlink:href="#glyph2-2" x="74.148609" y="13.6378"/>
</g>
<g style="fill:rgb(0%,0%,0%);fill-opacity:1;">
  <use xlink:href="#glyph0-1" x="100.568414" y="57.642847"/>
</g>
<g style="fill:rgb(0%,0%,0%);fill-opacity:1;">
  <use xlink:href="#glyph1-3" x="105.303747" y="59.007925"/>
</g>
<g style="fill:rgb(0%,0%,0%);fill-opacity:1;">
  <use xlink:href="#glyph3-1" x="110.464481" y="57.642847"/>
</g>
<g style="fill:rgb(0%,0%,0%);fill-opacity:1;">
  <use xlink:href="#glyph0-1" x="117.095146" y="57.642847"/>
</g>
<g style="fill:rgb(0%,0%,0%);fill-opacity:1;">
  <use xlink:href="#glyph1-1" x="121.83048" y="59.007925"/>
</g>
<g style="fill:rgb(0%,0%,0%);fill-opacity:1;">
  <use xlink:href="#glyph3-1" x="126.991214" y="57.642847"/>
</g>
<g style="fill:rgb(0%,0%,0%);fill-opacity:1;">
  <use xlink:href="#glyph0-1" x="133.621879" y="57.642847"/>
</g>
<g style="fill:rgb(0%,0%,0%);fill-opacity:1;">
  <use xlink:href="#glyph1-4" x="138.357212" y="59.007925"/>
</g>
<g style="fill:rgb(0%,0%,0%);fill-opacity:1;">
  <use xlink:href="#glyph3-1" x="143.517947" y="57.642847"/>
</g>
<g style="fill:rgb(0%,0%,0%);fill-opacity:1;">
  <use xlink:href="#glyph4-1" x="150.148612" y="57.642847"/>
</g>
<g clip-path="url(#clip4)" clip-rule="nonzero">
<path style="fill:none;stroke-width:1.19553;stroke-linecap:butt;stroke-linejoin:miter;stroke:rgb(0%,0%,0%);stroke-opacity:1;stroke-miterlimit:10;" d="M 80.697052 0.000468877 L 80.697052 161.39534 " transform="matrix(0.998594,0,0,-0.998594,4.178118,165.344218)"/>
</g>
<g clip-path="url(#clip5)" clip-rule="nonzero">
<path style="fill:none;stroke-width:1.19553;stroke-linecap:butt;stroke-linejoin:miter;stroke:rgb(0%,0%,0%);stroke-opacity:1;stroke-miterlimit:10;" d="M 0.00157192 80.695948 L 161.396443 80.695948 " transform="matrix(0.998594,0,0,-0.998594,4.178118,165.344218)"/>
</g>
</g>
</svg>
